<svg preserveAspectRatio="none" width="100%" height="100%" overflow="visible" style="display: block;" viewBox="0 0 123.959 38.008" fill="none" xmlns="http://www.w3.org/2000/svg">
<g id="vector-nerry">
<path id="Vector" d="M104.188 0.7331C105.084 1.01044 109.553 16.4831 110.485 18.4265L116.385 0.916694C116.623 0.690131 117.082 0.690134 117.401 0.66279C118.561 0.563181 122.239 0.483104 123.258 0.676463C123.727 0.766307 123.965 1.06318 123.959 1.5417C120.701 10.2546 117.903 19.1745 114.531 27.8405C112.065 34.1843 109.858 38.6413 101.998 37.9343C100.914 37.8366 97.1291 36.7761 96.7209 35.7839C96.5823 35.4479 98.4104 30.6003 98.7756 30.4226C99.4944 30.071 101.18 31.1784 102.211 31.2819C104.711 31.5319 106.106 29.7995 106.571 27.5143L96.4866 1.37958C96.5764 0.998724 96.7131 0.742866 97.1174 0.666694C97.76 0.5456 103.688 0.572944 104.19 0.72724V0.7331H104.188Z" fill="var(--fill-0, #203A54)"/>
<path id="Vector_2" d="M36.5315 16.4772C37.3909 21.7214 43.3674 23.0729 47.7229 20.9362C48.7502 20.4323 49.7483 19.1921 50.8655 19.405C51.7092 19.5671 53.3811 22.4499 54.2971 23.0026C54.9221 23.778 53.5745 24.7604 52.9846 25.2233C43.6721 32.5554 28.3967 26.7604 28.5432 13.8718C28.7346 -2.88018 53.0217 -5.19269 55.7971 10.9655C55.9338 11.7663 56.3538 16.4772 55.3596 16.4772H36.5295H36.5315ZM48.2385 11.403C47.8674 4.08075 37.1917 4.56122 36.5315 11.403H48.2385Z" fill="var(--fill-0, #203A54)"/>
<path id="Vector_3" d="M7.23462 0.699893C7.45923 0.840518 7.69946 3.5202 7.65454 3.98895C11.3245 -1.33917 20.8772 -1.2298 24.2874 4.2331C27.7014 9.7038 25.2209 20.3698 26.0042 26.7292C26.0042 27.0339 25.8928 27.362 25.6057 27.5007C25.2249 27.6862 19.1897 27.6765 18.7795 27.4948C18.594 27.4128 18.4221 27.1686 18.2913 27.0065C17.8733 22.362 18.4963 17.4772 18.1975 12.8561C18.0178 10.0632 17.2581 7.19403 14.0022 6.90497C9.89282 6.53973 8.2854 9.36395 8.0354 13.0515C7.72095 17.6608 8.36548 22.571 7.94751 27.2077C7.68579 27.4987 7.34009 27.5573 6.9729 27.5983C6.15259 27.6921 1.54516 27.7331 0.959227 27.5573C0.373289 27.3815 0.275635 26.6511 0.22876 26.1413C-0.474365 18.3288 0.703367 9.36591 0.324461 1.43817C0.394774 1.26435 0.416261 0.994812 0.529543 0.862C0.918215 0.404969 6.22876 0.785827 7.23657 0.695983V0.699893H7.23462Z" fill="var(--fill-0, #203A54)"/>
<path id="Vector_4" d="M85.8499 27.3581C85.635 27.5729 85.1331 27.5827 84.8323 27.6081C83.967 27.6804 79.0549 27.6999 78.6116 27.4206C78.467 27.3288 78.4143 27.1882 78.3713 27.0319L78.3245 1.19989C78.3752 1.02606 78.512 0.848323 78.6741 0.770198C79.0335 0.59637 84.8518 0.586605 85.1213 0.764339C86.1409 1.43817 84.6975 4.30926 85.6975 4.96551C86.5334 2.69598 88.6057 0.951839 90.9612 0.373714C92.1799 0.0748861 95.635 -0.237614 95.6546 1.54559C95.6721 3.23309 95.1643 5.27411 95.2561 7.00848C94.8459 8.39911 93.6565 7.56708 92.6233 7.50458C83.2444 6.93426 86.594 20.4206 86.0979 26.3386C86.0725 26.6413 86.0647 27.1413 85.8479 27.3561L85.8499 27.3581Z" fill="var(--fill-0, #203A54)"/>
<path id="Vector_5" d="M66.0842 27.2995C65.9592 27.4089 66.0432 27.571 65.7112 27.612C64.5549 27.7507 60.9827 27.7585 59.8381 27.6081C59.3303 27.5417 59.0374 27.3405 58.8167 26.8737V1.19794C59.1233 0.149112 61.7502 0.854188 62.5803 0.865907C63.344 0.875672 65.3948 0.153018 65.7112 1.24091C66.0374 2.362 65.9338 3.52802 65.9944 4.6745C66.0061 4.8952 65.8674 5.20966 66.1878 5.15692C66.8421 2.86591 69.1311 0.903018 71.4475 0.367862C72.846 0.0436433 76.1663 -0.292293 76.1565 1.74286C76.1506 3.07294 75.9475 5.47724 75.7366 6.80341C75.4807 8.41083 73.1038 7.37958 71.7503 7.50263C67.9241 7.85224 66.7834 11.0475 66.5706 14.4186C66.3167 18.4206 66.7737 22.694 66.5823 26.7253C66.5549 27.0397 66.2795 27.1296 66.0823 27.2995H66.0842Z" fill="var(--fill-0, #203A54)"/>
</g>
</svg>
