<svg preserveAspectRatio="none" width="100%" height="100%" overflow="visible" style="display: block;" viewBox="0 0 45.2922 42.404" fill="none" xmlns="http://www.w3.org/2000/svg">
<g id="vector-iti">
<path id="Vector" d="M18.673 6.43366C20.0207 6.29499 23.8351 6.24811 25.0851 6.50983C26.6828 6.84382 25.9347 8.69148 25.8097 9.72859C25.5734 11.6954 25.5402 13.8966 28.0441 14.0938L42.5949 14.0899C43.7805 14.3106 44.5012 15.129 44.55 16.338C44.8586 23.7833 44.2492 31.502 44.5109 38.9786C44.7765 40.5645 43.7414 41.6719 42.1847 41.793C41.1652 41.8731 38.214 41.92 37.3195 41.6759C36.425 41.4317 35.8215 40.6622 35.6848 39.7969L35.6808 23.1309C35.4367 21.877 34.6203 21.2149 33.3644 21.1173C32.2433 21.0294 28.2082 20.9747 27.2902 21.2598C26.3508 21.5509 25.8 22.4102 25.718 23.3653C25.4719 26.2286 25.8449 29.5352 25.8117 32.4298C26.339 34.4825 27.8781 35.1524 29.8703 34.545C30.4797 34.3594 31.841 33.4942 32.2277 33.463C32.6965 33.4259 33.089 33.9844 33.2785 34.3614C34.1164 36.0216 34.3137 39.4161 32.7922 40.7364C30.216 42.9708 24.6945 42.7149 21.7433 41.4024C14.5265 38.1934 17.3019 29.2891 16.6945 23.0782C16.3234 20.9102 13.9465 20.9766 12.1965 21.1231C10.968 21.2266 10.1789 21.8614 9.88592 23.0626L9.86834 39.6348C9.7453 40.6817 9.12616 41.461 8.08319 41.6915C7.16131 41.8946 3.56561 41.9122 2.66912 41.6798C1.90936 41.4825 1.36053 40.8614 1.09491 40.1485C1.00701 32.004 0.99139 23.8126 1.10272 15.67C1.43475 14.8243 1.98748 14.3028 2.88592 14.1016C6.841 13.8555 11.1437 14.4044 15.0578 14.0977C15.757 14.043 16.382 13.7598 16.4777 12.9844C16.5207 12.627 16.4035 12.3985 16.3996 12.0958C16.382 10.6231 16.3586 8.77155 17.0715 7.44929C17.4719 6.70515 17.8508 6.52155 18.675 6.43757V6.43366H18.673Z" fill="var(--fill-0, #00C3FF)"/>
<path id="Vector_2" d="M40.1223 10.6075C42.9775 10.6075 45.2922 8.29284 45.2922 5.43757C45.2922 2.5823 42.9775 0.267649 40.1223 0.267649C37.267 0.267649 34.9523 2.5823 34.9523 5.43757C34.9523 8.29284 37.267 10.6075 40.1223 10.6075Z" fill="var(--fill-0, #00C3FF)"/>
<path id="Vector_3" d="M5.72946 10.6019C8.5782 10.4441 10.7597 8.00686 10.6019 5.15811C10.4441 2.30937 8.00686 0.127899 5.15811 0.285672C2.30936 0.443446 0.127901 2.88071 0.285674 5.72946C0.443448 8.57821 2.88071 10.7597 5.72946 10.6019Z" fill="var(--fill-0, #00C3FF)"/>
</g>
</svg>
